<svg width="19" height="15" viewBox="0 0 19 15" fill="none" xmlns="http://www.w3.org/2000/svg">
<path d="M1.41406 5.70703L0.706956 4.99993L-0.000151157 5.70703L0.706956 6.41414L1.41406 5.70703ZM11.4141 5.70703V6.70703V6.70703V5.70703ZM16.4141 13.707C16.4141 14.2593 16.8618 14.707 17.4141 14.707C17.9663 14.707 18.4141 14.2593 18.4141 13.707H17.4141H16.4141ZM6.41406 10.707L7.12117 9.99992L2.12117 4.99992L1.41406 5.70703L0.706956 6.41414L5.70696 11.4141L6.41406 10.707ZM1.41406 5.70703L2.12117 6.41414L7.12117 1.41414L6.41406 0.707031L5.70696 -7.55191e-05L0.706956 4.99993L1.41406 5.70703ZM1.41406 5.70703L1.41406 6.70703L11.4141 6.70703V5.70703V4.70703L1.41406 4.70703L1.41406 5.70703ZM17.4141 11.707H16.4141V13.707H17.4141H18.4141V11.707H17.4141ZM11.4141 5.70703V6.70703C14.1755 6.70703 16.4141 8.94561 16.4141 11.707H17.4141H18.4141C18.4141 7.84104 15.2801 4.70703 11.4141 4.70703V5.70703Z" fill="#272D45"/>
</svg>
